
<global>
amp_veltrack=0
ampeg_release=0.25
</global>

<group>
group_label=Group_0-45
lpc_hicc1=42
lpc_locc1=0

<region>
hikey=a#3
hivel=127
lokey=a3
loop_end=267840
loop_mode=loop_continuous
loop_start=59436
loop_xfade=25252
lovel=1
lpc=lMlEQh1O0sK6hIhCtzaZwW1yVUGqB+S/w/IBwSX44j+dTANBH1u6wMNiicDzdZZAmMeSvwZqJsAn7+4/PE33vo1GO72r2gxBlWa5wERNrsDgi5NAhn79P4hy3MDmG5FA
lpc_rms=-34.00
pitch_keycenter=a#3
sample=Clarinet_trill_wholetone_PP_A#3.opus
</region>

<region>
hikey=a#4
hivel=127
lokey=a4
loop_end=262944
loop_mode=loop_continuous
loop_start=58350
loop_xfade=24791
lovel=1
lpc=3MB/QlObEsOQ5sVCztUvwWHMvEDQ9UfB84mBQOgMecARS5JAPSOIwF8w0j9iALQ+fG3TP2YFRMBqBIK/0h0+QLjskr8O5mpAb2IvvmrEisBI6XdA5zgCQIFxIsExM91A
lpc_rms=-30.16
pitch_keycenter=a#4
sample=Clarinet_trill_wholetone_PP_A#4.opus
</region>

<region>
hikey=a#5
hivel=127
lokey=a5
loop_end=263547
loop_mode=loop_continuous
loop_start=58484
loop_xfade=24848
lovel=1
lpc=zwCVQrWlKsON5QVDI/vGwWMesb+EghTAcP/gwMUPy0Cpi33AlncUQZZdEL9fg5FAxaLGwB99A0H9uQHBNs6YQAzcZkDYY4/A6r38QM3ror65eoa/t3dgwPYfgMDyww9B
lpc_rms=-23.95
pitch_keycenter=a#5
sample=Clarinet_trill_wholetone_PP_A#5.opus
</region>

<region>
hikey=c4
hivel=127
lokey=b3
loop_end=264253
loop_mode=loop_continuous
loop_start=58640
loop_xfade=24914
lovel=1
lpc=CtpWQjX6bsLS7FBBVwYmwukyE0LV7ZbA/U4FvyWuxkDrqpxAIvmFP/UhDsCrlg3BGCDwvxRY77/237xArhvtP3EOSUAJ6Q/BiPnHQMoHZ8CAThdATjw5wJxs/T+hfRRA
lpc_rms=-26.41
pitch_keycenter=c4
sample=Clarinet_trill_wholetone_PP_C4.opus
</region>

<region>
hikey=c5
hivel=127
lokey=b4
loop_end=260269
loop_mode=loop_continuous
loop_start=57756
loop_xfade=24539
lovel=1
lpc=isYRQpHxoMJvaWFCbImEwTyNOEETpO3Ar5/DQJlKtsBEdVA/JfCWvw83sj6xg7k/pjAPv0p5YL2/AgO/tydKQJgoQsDwzbI/3pveP3LrY8DrcZZAS8ClwFksAT/KKA5A
lpc_rms=-33.54
pitch_keycenter=c5
sample=Clarinet_trill_wholetone_PP_C5.opus
</region>

<region>
hikey=c6
hivel=127
lokey=b5
loop_end=262827
loop_mode=loop_continuous
loop_start=58324
loop_xfade=24780
lovel=1
lpc=6kq0Qr6lP8ME/g1DEXA8wpX/J0IRjqnBPtbvwGhz1L/RxjdBovMjPw4LG0C1Q09A/3smQCk5jT/IwezA8PA7QdWtBb5lEB/B5NelQUusC8Ea0TPBopmYQYQcXsENEyJB
lpc_rms=-17.99
pitch_keycenter=c6
sample=Clarinet_trill_wholetone_PP_C6.opus
</region>

<region>
hikey=d4
hivel=127
lokey=c#4
loop_end=273923
loop_mode=loop_continuous
loop_start=60786
loop_xfade=25826
lovel=1
lpc=icDZQvFRG8MJQbFBwS54wZYN6UEIRdNAeySfQb0dtL83gQ++GiMQwCVsIcHzIqLAM2eKwBC2WL7LmmlA24HSP5KpikDtL4hAir8wQCwh7L9hHQHBlEuPv//2JsBRANlA
lpc_rms=-28.76
pitch_keycenter=d4
sample=Clarinet_trill_wholetone_PP_D4.opus
</region>

<region>
hikey=d5
hivel=127
lokey=c#5
loop_end=262056
loop_mode=loop_continuous
loop_start=58153
loop_xfade=24707
lovel=1
lpc=J998QprlFcN22dhCvlafwZ2ljEEbHtDBz12VQWJBicHvts9AqxFPPOn1L8DUebdAn5eSwKWruECXvnO/lVERv7aZWMC/hhE+bQmmQG4SZ8BkWPG+TVMzv9E0lkCmfva/
lpc_rms=-28.96
pitch_keycenter=d5
sample=Clarinet_trill_wholetone_PP_D5.opus
</region>

<region>
hikey=C7
hivel=127
lokey=c#6
loop_end=265799
loop_mode=loop_continuous
loop_start=58983
loop_xfade=25060
lovel=1
lpc=2t3XQrHEgMPTaXBDluOpwiQ4sEHvb0zBFnwcwQ7qfEFVHoFBl1QYwWdReECsB6RAeOqWQNjXqL5MnClBjtfAwGcG4kB4qYlAZWfjwClVqsA1uOxBD9ISwMYG6MFqar1B
lpc_rms=-11.16
pitch_keycenter=D6
sample=Clarinet_trill_wholetone_PP_D6.opus
</region>

<region>
hikey=e3
hivel=127
lokey=C#3
loop_end=263799
loop_mode=loop_continuous
loop_start=58539
loop_xfade=24871
lovel=1
lpc=zzrWQWMWNMJp75BB+M49wGnDcUA5p6C/aiDAvSsqqT6yvR1Axf1Yv1dPx7+8nrc+1Wm4P8/dzb+8L42/Efd7vksqFD86kgxAfJDZPu+Pm7+nEqq/kCIxvnb8lr5dwMU/
lpc_rms=-42.82
pitch_keycenter=e3
sample=Clarinet_trill_wholetone_PP_E3.opus
</region>

<region>
hikey=e4
hivel=127
lokey=d#4
loop_end=259238
loop_mode=loop_continuous
loop_start=57527
loop_xfade=24441
lovel=1
lpc=LFjQQim7NcNsw4VCvqC4P/+8sUBeVoVB+syEwAKEh8A84udAKg9FwZziAMAJXhbA2lW+QFSFKb99Nve/3L+2vgVXBUCtiSZA6qMMQZMU0MBtZse/Kl60wDIAWsD2NAtB
lpc_rms=-28.15
pitch_keycenter=e4
sample=Clarinet_trill_wholetone_PP_E4.opus
</region>

<region>
hikey=e5
hivel=127
lokey=d#5
loop_end=270196
loop_mode=loop_continuous
loop_start=59959
loop_xfade=25475
lovel=1
lpc=MbqDQkdoFcMQKMhC4r4VwU/gREA3kLvAiaSgQN5WecESBTBBj5mMwFU7P0B+NWxAOBonwb03H0G8U/6/J17/P4ghgMBPfuw/ch7FQGdXJsGHNos/mzsavwiuO0EAsdrA
lpc_rms=-27.84
pitch_keycenter=e5
sample=Clarinet_trill_wholetone_PP_E5.opus
</region>

<region>
hikey=f#3
hivel=127
lokey=f3
loop_end=270005
loop_mode=loop_continuous
loop_start=59917
loop_xfade=25456
lovel=1
lpc=icxgQr4Dy8IHZklCQ7uCwQlVdUHeM7LApR/ZP0KHkL8L/LdAIdoWvtQZ5cD3sXs/2nOuQBJUlMDTHELAkNFnPwp2p0AdByZAfFEDwHwmpMCPWCo/WgafPgPHAsDPmntA
lpc_rms=-34.02
pitch_keycenter=f#3
sample=Clarinet_trill_wholetone_PP_F#3.opus
</region>

<region>
hikey=f#4
hivel=127
lokey=f4
loop_end=250511
loop_mode=loop_continuous
loop_start=55591
loop_xfade=23619
lovel=1
lpc=OC+sQvnDDMOl3QxCT0b7Pz7PCEIik4fBKfoJQaa56b+IJx9AYmoDwUVq0T/a6ZzAfJrQQJ/VHcGNv5pAnf9cQPj1RsCxOs5AjA4jwGcdZj9GIAPB1B8oQR3FysAmSExA
lpc_rms=-28.32
pitch_keycenter=f#4
sample=Clarinet_trill_wholetone_PP_F#4.opus
</region>

<region>
hikey=f#5
hivel=127
lokey=f5
loop_end=265951
loop_mode=loop_continuous
loop_start=59017
loop_xfade=25074
lovel=1
lpc=Dh2XQogcDsO8T25CwfkEwKAxEkJtkUXB8dSDwMPfeMHCttBAgn2bPU0pCL8Wj7xAYiD3PpZxKD8/C62/wHWjv9d3zL/RIxg/C6uaQEa7Ub/N/uk/h/wkwL9rOsC5vzdA
lpc_rms=-20.86
pitch_keycenter=f#5
sample=Clarinet_trill_wholetone_PP_F#5.opus
</region>

<region>
hikey=g#3
hivel=127
lokey=g3
loop_end=263127
loop_mode=loop_continuous
loop_start=58390
loop_xfade=24808
lovel=1
lpc=vf7jQfGIEcLA4kNB4IuxwTM7jEGMhldAEG3lPWll98CQer5AqOSvvXlxPUB4grvAVdKnP9zWSr86muI+a/EGQFLcPMDZZt4/+EmKQCqoesA4MQLAUWnBv6w/Uz+JCjJA
lpc_rms=-34.75
pitch_keycenter=g#3
sample=Clarinet_trill_wholetone_PP_G#3.opus
</region>

<region>
hikey=g#4
hivel=127
lokey=g4
loop_end=261688
loop_mode=loop_continuous
loop_start=58071
loop_xfade=24672
lovel=1
lpc=NGnYQgFmVMOSFt1CTldPwc0TxkF4cmnBDNAjQIw/x8AyvVM+fh9+QJKnMUCYRJDAApl6wDwS4UA9UsnAvXyLP9WP7r+dDzxA+CEIQacUxcAb+po/LHPNwGuyp0BRHlY/
lpc_rms=-27.15
pitch_keycenter=g#4
sample=Clarinet_trill_wholetone_PP_G#4.opus
</region>

<region>
hikey=g#5
hivel=127
lokey=g5
loop_end=261028
loop_mode=loop_continuous
loop_start=57925
loop_xfade=24610
lovel=1
lpc=PgBEQvUhucLz5zhCPm+zwciKckILtBzCh48QQKkA6sBy5gxBloWFwAguAEHlxQbA1IRJQOGh6sD7ZZ9AD1IkvsLA9r/xnv+/l0MbQSW9J0A+mMrAV7lbwFOADMBfndVA
lpc_rms=-19.76
pitch_keycenter=g#5
sample=Clarinet_trill_wholetone_PP_G#5.opus
</region>
</group>

<group>
group_label=Group_46-90
lpc_hicc1=84
lpc_locc1=43

<region>
hikey=a#3
hivel=127
lokey=a3
loop_end=272872
loop_mode=loop_continuous
loop_start=60553
loop_xfade=25727
lovel=1
lpc=VrhCQrLc8cLHwKpCm9HbwDb10ECGu/rAo3c1wUbcUUB79ZVAVfjxv7Dt5b86njJAIthNvknvbT8Ghae/9mP5PlL15r7+HrI9cjzQP4K5l8Cz2kNAnmtEPz2mg74WWdO+
lpc_rms=-27.17
pitch_keycenter=a#3
sample=Clarinet_trill_wholetone_MF_A#3.opus
</region>

<region>
hikey=a#4
hivel=127
lokey=a4
loop_end=271577
loop_mode=loop_continuous
loop_start=60265
loop_xfade=25605
lovel=1
lpc=5WtUQrHtFMMCxBNDSSxXwnELJkGvxozBMdiUQRdV1sEbv/RBZHNgwf7RbkDA4AvALiDYvoF0ncDlOaRAIgLAQCGOJ8G2iylByFr/wGmTdr9As+hAyMl6wEyunL/bANY/
lpc_rms=-28.09
pitch_keycenter=a#4
sample=Clarinet_trill_wholetone_MF_A#4.opus
</region>

<region>
hikey=a#5
hivel=127
lokey=a5
loop_end=257288
loop_mode=loop_continuous
loop_start=57095
loop_xfade=24257
lovel=1
lpc=7HqGQkisPMMpQVhDzLflwioJz0GxWsDAsGxNQY4oLsFb5LhAOjM3wHNoeEBIATRBS/enwRsIMEEzu+2/Q2gmQVBJxMCWVwHB+dxzQeHlNcE96XhBpO+nwfu8OkGBObY7
lpc_rms=-24.30
pitch_keycenter=a#5
sample=Clarinet_trill_wholetone_MF_A#5.opus
</region>

<region>
hikey=c4
hivel=127
lokey=b3
loop_end=266214
loop_mode=loop_continuous
loop_start=59075
loop_xfade=25099
lovel=1
lpc=tE54Qh+zz8KOcwxCoCQCwlaYhkLrNILBzIDJwFbtQ8CDUYS+k1D5v+dMQsDOHHG/MmoUQHqV0r4c1Oc/nnRrP2ELpb6y2X+/zHwPQUZdBMHHJQTA1B4fwJM7tkD6JXy9
lpc_rms=-21.40
pitch_keycenter=c4
sample=Clarinet_trill_wholetone_MF_C4.opus
</region>

<region>
hikey=c5
hivel=127
lokey=b4
loop_end=267631
loop_mode=loop_continuous
loop_start=59390
loop_xfade=25233
lovel=1
lpc=mv05Qt5w+sJYqfJCqn00wv1vW0FHNZvBLjleQTBWfcFmk6hBGWGUwJ/h0cAsZCDAT0ipQBNcKj8okLLAhg4vQQDROMHL6jtBFDIlwdYcJkBZxsVABRSnwN8szb/Kp0VA
lpc_rms=-24.15
pitch_keycenter=c5
sample=Clarinet_trill_wholetone_MF_C5.opus
</region>

<region>
hikey=c6
hivel=127
lokey=b5
loop_end=266898
loop_mode=loop_continuous
loop_start=59227
loop_xfade=25164
lovel=1
lpc=QbWEQorcE8NC9gxDyl6NwpcWCkL/S4zBnHYcPzY0PEFzJuK/3ImNv1oiuEDnL1E/1dRaQBnUIEDfFKLAUTsIQc5/qUCp+wrBBht1QIle5ED4zjbBsLtyQTXBeMFe+1NB
lpc_rms=-16.72
pitch_keycenter=c6
sample=Clarinet_trill_wholetone_MF_C6.opus
</region>

<region>
hikey=d4
hivel=127
lokey=c#4
loop_end=267478
loop_mode=loop_continuous
loop_start=59356
loop_xfade=25218
lovel=1
lpc=ok+nQrImVcOUzSpDDdUdwsNrskGwGt/BN67FvnQ+ksDzcCRBR/vVQOrzw78ZDd3AbQ1VwUCL+kDon3hB63gOwb4ajL4M3HtAjrrgwB9CC0AsgJw/FBe6Pwmy38AZT7FA
lpc_rms=-22.68
pitch_keycenter=d4
sample=Clarinet_trill_wholetone_MF_D4.opus
</region>

<region>
hikey=d5
hivel=127
lokey=c#5
loop_end=262584
loop_mode=loop_continuous
loop_start=58270
loop_xfade=24757
lovel=1
lpc=A4tLQiqnA8P6F+pCMZP9wVDpqEDYVLbBtVuzQQbDGsH6L6dAvTlywBpOd8Dq2ENBwe4lwX84PD1WMaNAQJY1wJAW4EASo8fA7EmkvzhgXkDltX3AQviRQFTtJcB/1/Q/
lpc_rms=-25.66
pitch_keycenter=d5
sample=Clarinet_trill_wholetone_MF_D5.opus
</region>

<region>
hikey=C7
hivel=127
lokey=c#6
loop_end=257313
loop_mode=loop_continuous
loop_start=57100
loop_xfade=24260
lovel=1
lpc=/oBRQquD4cJtGs1CUYkpwlyrkUAS/JpBoXt7wQDmjMBHYq9B/aIiwZEFTkCI2fNA1qOswPTFgEBgZQO/+VlMQd03j8GIcrNBWu1lwaWU7r+c+HlB+cpowWT7PEEK6gDA
lpc_rms=-20.98
pitch_keycenter=D6
sample=Clarinet_trill_wholetone_MF_D6.opus
</region>

<region>
hikey=e3
hivel=127
lokey=C#3
loop_end=277085
loop_mode=loop_continuous
loop_start=61488
loop_xfade=26124
lovel=1
lpc=d6DeQcjXb8K2cvJBNUtKQPC16UBVNm/AyXnBwG05C8Bl0EtA0qY+P8mWAL8kvSFArUtRwA6eGT9GTNy/NSJWP9kiGEC4PWc/XsKTP0rbscBck98/6blDv7zu8j+tMfW+
lpc_rms=-28.35
pitch_keycenter=e3
sample=Clarinet_trill_wholetone_MF_E3.opus
</region>

<region>
hikey=e4
hivel=127
lokey=d#4
loop_end=267206
loop_mode=loop_continuous
loop_start=59296
loop_xfade=25193
lovel=1
lpc=phxPQmtD28JBIm1COP6XwC84vEFvzMrBoyxBQZvuI8HO6JtAe59RwO4rH0Fs3VXBDRy8QNZJX78AmGDAXbedQGvjqMBxmzdB8ZkMQFwjG8EoIITA/5uWQNnBmsD+GbJA
lpc_rms=-26.67
pitch_keycenter=e4
sample=Clarinet_trill_wholetone_MF_E4.opus
</region>

<region>
hikey=e5
hivel=127
lokey=d#5
loop_end=268306
loop_mode=loop_continuous
loop_start=59540
loop_xfade=25296
lovel=1
lpc=GRBjQihuC8NYOttCGUSBwTaj+kA42eTBj38SQXGBA8DOso1BFqxVwW8i8z/8hF6/+4kXQD25cT8PPX+/xxNpwN42QkAfwFtAqc27QAZrTMHtakpAyME5v1vIsUAmMce/
lpc_rms=-24.72
pitch_keycenter=e5
sample=Clarinet_trill_wholetone_MF_E5.opus
</region>

<region>
hikey=f#3
hivel=127
lokey=f3
loop_end=274796
loop_mode=loop_continuous
loop_start=60980
loop_xfade=25908
lovel=1
lpc=wsYbQp9VycIgJKFCYeJowQCJYEFbgwXCSA2MQbVqHMGEP1lBrzlTwBmQHMB18fG/dUXrPy5N47/kQGC/zjNIQNdTTL+kAaVAnYLPwItPnL92Krg/hOpsQJ2nk8DZQwlA
lpc_rms=-26.03
pitch_keycenter=f#3
sample=Clarinet_trill_wholetone_MF_F#3.opus
</region>

<region>
hikey=f#4
hivel=127
lokey=f4
loop_end=261001
loop_mode=loop_continuous
loop_start=57919
loop_xfade=24608
lovel=1
lpc=SuxsQo5G7sKG5VpCK0UQwGKKKUK9BvPB7q73wFORuMBc/ahAaXsJQbWMGUCC7anAS3WCPggiEcGED69AisgNQbOR/8CzhMFAm9JKwMEfosDNfKg/94QUQD867z41i2Y/
lpc_rms=-27.55
pitch_keycenter=f#4
sample=Clarinet_trill_wholetone_MF_F#4.opus
</region>

<region>
hikey=f#5
hivel=127
lokey=f5
loop_end=270578
loop_mode=loop_continuous
loop_start=60044
loop_xfade=25511
lovel=1
lpc=w+mSQoPQIsMOd8dCRTwqwfr9BELqkrbBr3BuwR9bVcCwphdBPjKgQOz8rr/ivoA95FAMPrytjMBM9d9AV5aXv5bklcCUOP8/DvHSP7HyED57mo4/3cdyQPtSF8EBoZZA
lpc_rms=-21.39
pitch_keycenter=f#5
sample=Clarinet_trill_wholetone_MF_F#5.opus
</region>

<region>
hikey=g#3
hivel=127
lokey=g3
loop_end=272997
loop_mode=loop_continuous
loop_start=60581
loop_xfade=25739
lovel=1
lpc=raniQScDdcKEPxRCvv9Bwcscq0FMZAPBAPPgwH1w3r9+9WBAbvtyP2oRCEC1FgrBqtfmQJq8DUDWYdfAaS37PzZ+9D80Ocg/MnkQwHDYSD8TJOXA1LkrQQmptsDtza4/
lpc_rms=-27.51
pitch_keycenter=g#3
sample=Clarinet_trill_wholetone_MF_G#3.opus
</region>

<region>
hikey=g#4
hivel=127
lokey=g4
loop_end=258467
loop_mode=loop_continuous
loop_start=57356
loop_xfade=24369
lovel=1
lpc=5lO1QqWdSMNxMf5CYadOwb+Wl0EOlILBZdwpQHeC78HaBJRB6oaJQEoU2kC62F9A3smuwag1hEH78Z7B3Ri/QQD0ScF2vQlBiPIvwFS1z8C2+XdAa0mJP6624782qCdA
lpc_rms=-26.46
pitch_keycenter=g#4
sample=Clarinet_trill_wholetone_MF_G#4.opus
</region>

<region>
hikey=g#5
hivel=127
lokey=g5
loop_end=262650
loop_mode=loop_continuous
loop_start=58285
loop_xfade=24763
lovel=1
lpc=lR9VQrBg+8Jjg8hCLaoywl0MhUK/gX/CNcUDQfMnMUHrwRZAEr21wBzmukBwIy7A/LDbQMmn+8DAwrm/ohT0P9lCoT6PyQpBSxcowGBmur87XIXAtOT9P2XUmj8khXY/
lpc_rms=-19.95
pitch_keycenter=g#5
sample=Clarinet_trill_wholetone_MF_G#5.opus
</region>
</group>

<group>
group_label=Group_91-127
lpc_hicc1=127
lpc_locc1=85

<region>
hikey=a#3
hivel=127
lokey=a3
loop_end=268201
loop_mode=loop_continuous
loop_start=59516
loop_xfade=25286
lovel=1
lpc=F8CiQfyIV8IKVklCay2EwSuCCkCeeVTAIghnwF0i5UC3+CVAWozqwNzseL5/q8ZA2eOTwLa6Fr9bP6w/0g3CP25Q/L/LTgJAmMRbv3z/x79bcEK92GBhQG7sbcBKCLo/
lpc_rms=-21.28
pitch_keycenter=a#3
sample=Clarinet_trill_wholetone_FF_A#3.opus
</region>

<region>
hikey=a#4
hivel=127
lokey=a4
loop_end=272203
loop_mode=loop_continuous
loop_start=60404
loop_xfade=25664
lovel=1
lpc=tf2CQbzkH8LiYxNCNf5UwWuvYUCple/Av3/3QK1u1sC52RBBV4QGwToKS0DpsgdAXDwpwKvApb9RWmA/fi9KQJ09278vYTrA6KMdQIqetD8lsyy+EW8awOId8D/Hr0G9
lpc_rms=-19.67
pitch_keycenter=a#4
sample=Clarinet_trill_wholetone_FF_A#4.opus
</region>

<region>
hikey=a#5
hivel=127
lokey=a5
loop_end=272575
loop_mode=loop_continuous
loop_start=60487
loop_xfade=25699
lovel=1
lpc=y/KJQTYfAsKqJNRBHDQhwTxufUCurcC/INhIQDR9n8CeNKtA9MhAvyBICL83ajc/gkWoPw/Ep75a508/CGjrP0DPicDDdIZAlVufPj9sqr/4zg1AOAtCvtPIGMAoYZ0/
lpc_rms=-14.26
pitch_keycenter=a#5
sample=Clarinet_trill_wholetone_FF_A#5.opus
</region>

<region>
hikey=c4
hivel=127
lokey=b3
loop_end=266652
loop_mode=loop_continuous
loop_start=59173
loop_xfade=25140
lovel=1
lpc=JVe+QTl/YMLfuztChBiZwVltPEHGZN7AzTuhwKw/tkCc2+o/dKtOP81knsAjNrc/9geWv+S9LT/05Ma+6TazP7yKNz5kd7O/0+MhQHTm+b8fd9y/r9+iQJvvrsABNzJA
lpc_rms=-15.24
pitch_keycenter=c4
sample=Clarinet_trill_wholetone_FF_C4.opus
</region>

<region>
hikey=c5
hivel=127
lokey=b4
loop_end=268151
loop_mode=loop_continuous
loop_start=59505
loop_xfade=25282
lovel=1
lpc=w5v/QNJ0hcENUYFBrV4cwf5EmUC06lnAxNRSQGwtCcDpmiJAFlIqwOgdvz+CNHa/mAJLPx20kr8G0qI/VlLlvz5HIEC1DWa/LZynPo9L1r9z0GlAoOZrwPHFCEDKEwC+
lpc_rms=-21.98
pitch_keycenter=c5
sample=Clarinet_trill_wholetone_FF_C5.opus
</region>

<region>
hikey=c6
hivel=127
lokey=b5
loop_end=271279
loop_mode=loop_continuous
loop_start=60199
loop_xfade=25577
lovel=1
lpc=uMCoQeKoMsKckTVCKDDMweOWQ0GAfRvBaK01QZ5EBMGqhV9BPZdhwfxr5EATyilAiCNqujEp278tpqS/ZOklQZR1LsE9YTZBKegtwWSnbkHNI5XBXNySQRE8UcFxptFA
lpc_rms=-8.09
pitch_keycenter=c6
sample=Clarinet_trill_wholetone_FF_C6.opus
</region>

<region>
hikey=d4
hivel=127
lokey=c#4
loop_end=275439
loop_mode=loop_continuous
loop_start=61123
loop_xfade=25969
lovel=1
lpc=PwoDQsYhosIN4pNCUEEOwj3PqUF91kTB5LpNwHI8gEDxO39AR/qWPv2lrsAnIDlAxcHCwKWfXkA4OyNAEzQKvyPqlr/hXSpAmARZwG5PDj5BdxNAiTkBP/bVi8BTb05A
lpc_rms=-16.87
pitch_keycenter=d4
sample=Clarinet_trill_wholetone_FF_D4.opus
</region>

<region>
hikey=d5
hivel=127
lokey=c#5
loop_end=271722
loop_mode=loop_continuous
loop_start=60298
loop_xfade=25618
lovel=1
lpc=4nwLQRbNlcEp04ZBuB/0wPUpIUD2ek7AbmKWQDIohMC6d6tAvoCMwMY8dD/9mYS9X8K8PyJRFcCW83I/mleKP2+RJL87sRJAb4+DwAhNQUC3mL2+lMYdPouoAcBp8v8/
lpc_rms=-17.68
pitch_keycenter=d5
sample=Clarinet_trill_wholetone_FF_D5.opus
</region>

<region>
hikey=C7
hivel=127
lokey=c#6
loop_end=266140
loop_mode=loop_continuous
loop_start=59059
loop_xfade=25092
lovel=1
lpc=J2b5QZwTVMK33jVCVu+1wWUac0GuMC3BEQspQf7bub91QfRAT18/wATJHj9nje1A9QoaQDifer+32qA/nAq4QDY20r8d5A1BGUATwTGymkDy91FAlAPywIThKEFV/zG+
lpc_rms=-4.01
pitch_keycenter=D6
sample=Clarinet_trill_wholetone_FF_D6.opus
</region>

<region>
hikey=e3
hivel=127
lokey=C#3
loop_end=267344
loop_mode=loop_continuous
loop_start=59326
loop_xfade=25206
lovel=1
lpc=VUuEQbs9JcJptxFCdKxMwf9utEACewnBDyGFQD250b8abvFAyYHOwNXf6L7xZzI/9Xw4QJMRq8BEtOo/6Pp3QB9eN8Bieps+Ol5JvTNBSL85Jf8/JZpVv2Dx1b83fK0/
lpc_rms=-23.82
pitch_keycenter=e3
sample=Clarinet_trill_wholetone_FF_E3.opus
</region>

<region>
hikey=e4
hivel=127
lokey=d#4
loop_end=267758
loop_mode=loop_continuous
loop_start=59418
loop_xfade=25245
lovel=1
lpc=eqDVQR8VdsLWPS9CgyvFwJ+fHkAsje/A8E4KvmlIU0CdwlBA1kEzwPHpUcBi1Iw/qOkhQEm8T8D3vbw/4dwuPg+muT8OOQ/AUkPzP9JvkL+6DOM/D1E5PIxSrsCIeopA
lpc_rms=-21.09
pitch_keycenter=e4
sample=Clarinet_trill_wholetone_FF_E4.opus
</region>

<region>
hikey=e5
hivel=127
lokey=d#5
loop_end=279678
loop_mode=loop_continuous
loop_start=62063
loop_xfade=26369
lovel=1
lpc=kkcoQWSItcG6hKJBfUEPwXUjIEAMwsm/dd5NQAgarcDToetA5UiDwP6UkD6QXOk/I0o+wMav7j9gLao+PRtmPw7k4b+2gpg/6IdGPjB6ib7ApuE9p7kkQC8Cs8Bsx3lA
lpc_rms=-17.24
pitch_keycenter=e5
sample=Clarinet_trill_wholetone_FF_E5.opus
</region>

<region>
hikey=f#3
hivel=127
lokey=f3
loop_end=268700
loop_mode=loop_continuous
loop_start=59627
loop_xfade=25333
lovel=1
lpc=3paEQfoRMsIQZztCGcPFwam8IkGNicTAZ/TlPy1acsDg4kRBqwwqwYAxFb8fULJALscJwGRf8r8tcd49tjCcP1jIqD9PYKU+Jso5wMPA279RgLlAVakxv0+bmcD1KS5A
lpc_rms=-21.96
pitch_keycenter=f#3
sample=Clarinet_trill_wholetone_FF_F#3.opus
</region>

<region>
hikey=f#4
hivel=127
lokey=f4
loop_end=256460
loop_mode=loop_continuous
loop_start=56911
loop_xfade=24179
lovel=1
lpc=U+PoQSh0esIF/x9C5kyIwKOCgED8SrnAdZQQwGxzXkBG8yHAiS5QQJcBDD/evVTAWLfkPc5Om758HiBAL1bcveeRRsBGViFAH6mAP0N84b9U318+cyMwQLIk58D04qtA
lpc_rms=-21.20
pitch_keycenter=f#4
sample=Clarinet_trill_wholetone_FF_F#4.opus
</region>

<region>
hikey=f#5
hivel=127
lokey=f5
loop_end=279231
loop_mode=loop_continuous
loop_start=61964
loop_xfade=26326
lovel=1
lpc=U0IPQhRqtMJRHrpCT3cqwm9soD+onzJByQAOwWMWTD9eXQZBvfflvSKHGsFk3YdAb5uWQKLahcA1dmy/tZ/0QAwq7MDTUGw/9MfmQLPIK8E1E0xBRTQIweEcJ0BVbi8+
lpc_rms=-11.24
pitch_keycenter=f#5
sample=Clarinet_trill_wholetone_FF_F#5.opus
</region>

<region>
hikey=g#3
hivel=127
lokey=g3
loop_end=265413
loop_mode=loop_continuous
loop_start=58898
loop_xfade=25024
lovel=1
lpc=rxKKQRiVJsLjLgVCb04UwbteqUDgGrvALBcXwKxfaUDC9UJAaecXwJHm9b/PQqQ/udgOPqfx5L/sf+Q+5nIZQHnYFL9N/aC+qmECv05dCMAFaUNAF6KWP/8fe8A88vQ/
lpc_rms=-21.86
pitch_keycenter=g#3
sample=Clarinet_trill_wholetone_FF_G#3.opus
</region>

<region>
hikey=g#4
hivel=127
lokey=g4
loop_end=273018
loop_mode=loop_continuous
loop_start=60585
loop_xfade=25741
lovel=1
lpc=RykbQipLq8JnZ2pCeMt8wL2vWcBzsKXAny+GQA5KK8HiEUZBpADMvybeJ0DOoY/AxxzKwOAKtEDmZSG8JmQtQHZm4b8ov5Y/YyYswAPF97/HkXFA8VvlQNrZeMFAXRFB
lpc_rms=-19.73
pitch_keycenter=g#4
sample=Clarinet_trill_wholetone_FF_G#4.opus
</region>

<region>
hikey=g#5
hivel=127
lokey=g5
loop_end=278462
loop_mode=loop_continuous
loop_start=61793
loop_xfade=26254
lovel=1
lpc=28LcQb1eg8JW83xCVXr5wewkV0GHPfPAVQLJQKQo3cC5YyBB34kXwV6CBEFOGe3AJ1ezQIBTo79SAWa/FN85QPIoML4FNnLA9g74QMKzEsEwXBpBMR2swD11MD9G/V8/
lpc_rms=-10.07
pitch_keycenter=g#5
sample=Clarinet_trill_wholetone_FF_G#5.opus
</region>
</group>